<svg width="200" height="47" viewBox="0 0 200 47" fill="none" xmlns="http://www.w3.org/2000/svg">
<path fill-rule="evenodd" clip-rule="evenodd" d="M0.39462 18.6834C0.136076 20.0704 0 21.4982 0 22.9667C0 32.7028 6.05538 41.0246 14.6146 44.3697C18.4247 46.015 22.9016 46.7085 27.6915 45.4575C38.1149 43.2819 45.9393 34.0354 45.9393 22.9803C45.9529 10.28 35.6655 0 22.9696 0C15.8529 0 9.47089 3.24988 5.26614 8.33547C2.42215 11.4766 0.952532 15.0936 0.39462 18.6834ZM30.5899 42.806C23.8133 42.4796 20.6155 33.709 33.1753 20.8727C34.9171 21.6885 37.0263 21.6341 38.8089 20.5463C41.4896 18.901 42.4285 15.3927 40.918 12.6324C39.3123 9.69525 35.6111 8.66182 32.7263 10.3343C30.8892 11.395 29.8279 13.2987 29.7598 15.2704C12.3285 19.6761 6.43639 12.374 9.72943 6.32299C10.5731 4.77284 11.9203 3.56263 13.5123 2.81475C16.3835 1.46857 19.5949 0.707087 22.9832 0.707087C35.2709 0.707087 45.2453 10.6743 45.2453 22.9531C45.2453 30.5951 41.3943 37.3396 35.5158 41.351C34.0734 42.33 32.3589 42.8739 30.6035 42.7924L30.5899 42.806ZM4.25918 33.8042C9.72943 41.3646 19.3092 33.4642 31.7465 19.9344C31.2839 19.5265 30.8756 19.0234 30.5355 18.4522C30.2633 17.9763 30.0592 17.4732 29.9231 16.9565C12.0427 20.9543 0.449051 25.3056 4.25918 33.8042Z" fill="#FF6600"/>
<path d="M51.775 30.4124V27.7649C51.775 24.167 54.3053 22.6056 57.6475 22.6056H66.1991V22.0082C66.1991 20.026 65.1437 19.3607 63.52 19.3607H52.0456V15.2605H64.7242C68.0664 15.2605 70.5967 16.8083 70.5967 20.4197V30.4124C70.5967 34.0103 68.0664 35.7481 64.7242 35.7481H57.6475C54.3053 35.7481 51.775 34.0238 51.775 30.4124ZM66.2127 28.5795V26.7059H58.7841C57.3769 26.7059 56.1726 27.1946 56.1726 28.756V29.4213C56.1726 31.1591 57.1874 31.6479 58.7841 31.6479H63.5335C65.3602 31.6479 66.2127 30.874 66.2127 28.5795Z" fill="white"/>
<path d="M78.7019 35.7481V43.5141H74.3043V20.5962C74.3043 16.9983 76.8346 15.2605 80.1768 15.2605H87.1182C90.4604 15.2605 92.9907 16.9848 92.9907 20.5962V30.5889C92.9907 34.1868 90.4604 35.7481 87.1182 35.7481H78.7019ZM78.7019 31.6615H85.3592C87.0506 31.6615 88.5931 31.4171 88.5931 29.0139V21.9811C88.5931 20.0803 87.4971 19.3743 85.8869 19.3743H81.5976C79.7709 19.3743 78.7155 20.0803 78.7155 21.9811V31.6615H78.7019Z" fill="white"/>
<path d="M101.231 19.4014V35.7616H96.8333V8.20044H101.231V15.2605H109.58C112.922 15.2605 115.452 16.9847 115.452 20.5962V35.7481H111.082V22.0082C111.082 20.0667 109.986 19.3878 108.402 19.3878H101.217L101.231 19.4014Z" fill="white"/>
<path d="M137.413 35.7481H124.992C121.65 35.7481 119.146 33.9424 119.146 30.3038V20.4197C119.146 16.8218 121.677 15.2605 125.019 15.2605H132.096C135.438 15.2605 137.833 16.9169 137.833 20.5284V24.2349L123.571 29.462C123.571 31.3356 124.626 31.6479 126.846 31.6479H137.413V35.7481ZM123.503 25.3346L133.435 21.6281V21.3158C133.435 19.7952 132.867 19.415 130.269 19.415H126.575C124.153 19.415 123.517 20.474 123.517 22.2798V25.3482L123.503 25.3346Z" fill="white"/>
<path d="M145.748 35.7481H141.351V8.20044H145.748V35.7481Z" fill="white"/>
<path d="M152.148 9.15094C153.488 9.15094 154.611 10.2778 154.611 11.6219C154.611 12.9661 153.488 14.0929 152.148 14.0929C150.809 14.0929 149.686 12.9661 149.686 11.6219C149.686 10.2778 150.809 9.15094 152.148 9.15094ZM154.367 35.7482H149.97V15.2606H154.367V35.7482Z" fill="white"/>
<path d="M177.046 30.4531C177.046 34.051 174.515 35.7481 171.173 35.7481H164.137C160.795 35.7481 158.265 33.9424 158.265 30.3445V20.4876C158.265 16.8897 160.795 15.2605 164.137 15.2605H171.173C174.515 15.2605 177.046 16.7811 177.046 20.379V30.4395V30.4531ZM162.649 29.0411C162.649 30.9826 163.745 31.6614 165.531 31.6614H169.225C171.133 31.6614 172.675 31.4171 172.675 29.0411V22.0082C172.675 19.6051 171.133 19.3879 169.225 19.3879H165.531C163.731 19.3879 162.649 20.0532 162.649 22.0082V29.0411Z" fill="white"/>
<path d="M194.704 22.0082C194.704 20.0667 193.608 19.3879 191.822 19.3879H187.451C185.828 19.3879 184.772 20.0532 184.772 22.0082V35.7481H180.375V20.379C180.375 16.7811 182.905 15.2605 186.247 15.2605H193.216C196.558 15.2605 199.088 16.849 199.088 20.4469V35.7481H194.69V22.0082H194.704Z" fill="white"/>
</svg>
