<svg width="285" height="41" viewBox="0 0 285 41" fill="none" xmlns="http://www.w3.org/2000/svg">
<rect width="285" height="41" rx="20.5" fill="#FF6600"/>
<path d="M56.5455 26H52.7784V14.3636H56.6648C57.8049 14.3636 58.7841 14.5966 59.6023 15.0625C60.4205 15.5246 61.0473 16.1894 61.483 17.0568C61.9223 17.9205 62.142 18.9564 62.142 20.1648C62.142 21.3769 61.9205 22.4186 61.4773 23.2898C61.0379 24.161 60.4015 24.8314 59.5682 25.3011C58.7348 25.767 57.7273 26 56.5455 26ZM54.5341 24.4659H56.4489C57.3352 24.4659 58.072 24.2992 58.6591 23.9659C59.2462 23.6288 59.6856 23.142 59.9773 22.5057C60.2689 21.8655 60.4148 21.0852 60.4148 20.1648C60.4148 19.2519 60.2689 18.4773 59.9773 17.8409C59.6894 17.2045 59.2595 16.7216 58.6875 16.392C58.1155 16.0625 57.4053 15.8977 56.5568 15.8977H54.5341V24.4659ZM67.9503 26.1761C67.0904 26.1761 66.3499 25.9924 65.7287 25.625C65.1113 25.2538 64.634 24.733 64.2969 24.0625C63.9635 23.3883 63.7969 22.5985 63.7969 21.6932C63.7969 20.7992 63.9635 20.0114 64.2969 19.3295C64.634 18.6477 65.1037 18.1155 65.706 17.733C66.312 17.3504 67.0204 17.1591 67.831 17.1591C68.3234 17.1591 68.8007 17.2405 69.2628 17.4034C69.7249 17.5663 70.1397 17.822 70.5071 18.1705C70.8745 18.5189 71.1643 18.9716 71.3764 19.5284C71.5885 20.0814 71.6946 20.7538 71.6946 21.5455V22.1477H64.7571V20.875H70.0298C70.0298 20.428 69.9389 20.0322 69.7571 19.6875C69.5753 19.339 69.3196 19.0644 68.9901 18.8636C68.6643 18.6629 68.2817 18.5625 67.8423 18.5625C67.3651 18.5625 66.9484 18.6799 66.5923 18.9148C66.2401 19.1458 65.9673 19.4489 65.7741 19.8239C65.5848 20.1951 65.4901 20.5985 65.4901 21.0341V22.0284C65.4901 22.6117 65.5923 23.108 65.7969 23.517C66.0052 23.9261 66.295 24.2386 66.6662 24.4545C67.0374 24.6667 67.4711 24.7727 67.9673 24.7727C68.2893 24.7727 68.5829 24.7273 68.848 24.6364C69.1132 24.5417 69.3423 24.4015 69.5355 24.2159C69.7287 24.0303 69.8764 23.8011 69.9787 23.5284L71.5866 23.8182C71.4579 24.2917 71.2268 24.7064 70.8935 25.0625C70.5639 25.4148 70.1491 25.6894 69.6491 25.8864C69.1529 26.0795 68.5866 26.1761 67.9503 26.1761ZM80.1193 19.4034L78.5795 19.6761C78.5152 19.4792 78.4129 19.2917 78.2727 19.1136C78.1364 18.9356 77.9508 18.7898 77.7159 18.6761C77.4811 18.5625 77.1875 18.5057 76.8352 18.5057C76.3542 18.5057 75.9527 18.6136 75.6307 18.8295C75.3087 19.0417 75.1477 19.3163 75.1477 19.6534C75.1477 19.9451 75.2557 20.1799 75.4716 20.358C75.6875 20.536 76.036 20.6818 76.517 20.7955L77.9034 21.1136C78.7064 21.2992 79.3049 21.5852 79.6989 21.9716C80.0928 22.358 80.2898 22.8598 80.2898 23.4773C80.2898 24 80.1383 24.4659 79.8352 24.875C79.536 25.2803 79.1174 25.5985 78.5795 25.8295C78.0455 26.0606 77.4261 26.1761 76.7216 26.1761C75.7443 26.1761 74.947 25.9678 74.3295 25.5511C73.7121 25.1307 73.3333 24.5341 73.1932 23.7614L74.8352 23.5114C74.9375 23.9394 75.1477 24.2633 75.4659 24.483C75.7841 24.6989 76.1989 24.8068 76.7102 24.8068C77.267 24.8068 77.7121 24.6913 78.0455 24.4602C78.3788 24.2254 78.5455 23.9394 78.5455 23.6023C78.5455 23.3295 78.4432 23.1004 78.2386 22.9148C78.0379 22.7292 77.7292 22.589 77.3125 22.4943L75.8352 22.1705C75.0208 21.9848 74.4186 21.6894 74.0284 21.2841C73.642 20.8788 73.4489 20.3655 73.4489 19.7443C73.4489 19.2292 73.5928 18.7784 73.8807 18.392C74.1686 18.0057 74.5663 17.7045 75.0739 17.4886C75.5814 17.2689 76.1629 17.1591 76.8182 17.1591C77.7614 17.1591 78.5038 17.3636 79.0455 17.7727C79.5871 18.178 79.9451 18.7216 80.1193 19.4034ZM82.1577 26V17.2727H83.8565V26H82.1577ZM83.0156 15.9261C82.7202 15.9261 82.4664 15.8277 82.2543 15.6307C82.0459 15.4299 81.9418 15.1913 81.9418 14.9148C81.9418 14.6345 82.0459 14.3958 82.2543 14.1989C82.4664 13.9981 82.7202 13.8977 83.0156 13.8977C83.3111 13.8977 83.563 13.9981 83.7713 14.1989C83.9834 14.3958 84.0895 14.6345 84.0895 14.9148C84.0895 15.1913 83.9834 15.4299 83.7713 15.6307C83.563 15.8277 83.3111 15.9261 83.0156 15.9261ZM89.8011 29.4545C89.108 29.4545 88.5114 29.3636 88.0114 29.1818C87.5152 29 87.1098 28.7595 86.7955 28.4602C86.4811 28.161 86.2462 27.8333 86.0909 27.4773L87.5511 26.875C87.6534 27.0417 87.7898 27.2178 87.9602 27.4034C88.1345 27.5928 88.3693 27.7538 88.6648 27.8864C88.964 28.0189 89.3485 28.0852 89.8182 28.0852C90.4621 28.0852 90.9943 27.928 91.4148 27.6136C91.8352 27.303 92.0455 26.8068 92.0455 26.125V24.4091H91.9375C91.8352 24.5947 91.6875 24.8011 91.4943 25.0284C91.3049 25.2557 91.0436 25.4527 90.7102 25.6193C90.3769 25.786 89.9432 25.8693 89.4091 25.8693C88.7197 25.8693 88.0985 25.7083 87.5455 25.3864C86.9962 25.0606 86.5606 24.5814 86.2386 23.9489C85.9205 23.3125 85.7614 22.5303 85.7614 21.6023C85.7614 20.6742 85.9186 19.8788 86.233 19.2159C86.5511 18.553 86.9867 18.0455 87.5398 17.6932C88.0928 17.3371 88.7197 17.1591 89.4205 17.1591C89.9621 17.1591 90.3996 17.25 90.733 17.4318C91.0663 17.6098 91.3258 17.8182 91.5114 18.0568C91.7008 18.2955 91.8466 18.5057 91.9489 18.6875H92.0739V17.2727H93.7386V26.1932C93.7386 26.9432 93.5644 27.5587 93.2159 28.0398C92.8674 28.5208 92.3958 28.8769 91.8011 29.108C91.2102 29.339 90.5436 29.4545 89.8011 29.4545ZM89.7841 24.4602C90.2727 24.4602 90.6856 24.3466 91.0227 24.1193C91.3636 23.8883 91.6212 23.5587 91.7955 23.1307C91.9735 22.6989 92.0625 22.1818 92.0625 21.5795C92.0625 20.9924 91.9754 20.4754 91.8011 20.0284C91.6269 19.5814 91.3712 19.233 91.0341 18.983C90.697 18.7292 90.2803 18.6023 89.7841 18.6023C89.2727 18.6023 88.8466 18.7348 88.5057 19C88.1648 19.2614 87.9072 19.6174 87.733 20.0682C87.5625 20.5189 87.4773 21.0227 87.4773 21.5795C87.4773 22.1515 87.5644 22.6534 87.7386 23.0852C87.9129 23.517 88.1705 23.8542 88.5114 24.0966C88.8561 24.339 89.2803 24.4602 89.7841 24.4602ZM97.7159 20.8182V26H96.017V17.2727H97.6477V18.6932H97.7557C97.9564 18.2311 98.2708 17.8598 98.6989 17.5795C99.1307 17.2992 99.6742 17.1591 100.33 17.1591C100.924 17.1591 101.445 17.2841 101.892 17.5341C102.339 17.7803 102.686 18.1477 102.932 18.6364C103.178 19.125 103.301 19.7292 103.301 20.4489V26H101.602V20.6534C101.602 20.0208 101.438 19.5265 101.108 19.1705C100.778 18.8106 100.326 18.6307 99.75 18.6307C99.3561 18.6307 99.0057 18.7159 98.6989 18.8864C98.3958 19.0568 98.1553 19.3068 97.9773 19.6364C97.803 19.9621 97.7159 20.3561 97.7159 20.8182ZM110.933 26H109.07L113.257 14.3636H115.286L119.473 26H117.609L114.32 16.4773H114.229L110.933 26ZM111.246 21.4432H117.291V22.9205H111.246V21.4432ZM122.716 20.8182V26H121.017V17.2727H122.648V18.6932H122.756C122.956 18.2311 123.271 17.8598 123.699 17.5795C124.131 17.2992 124.674 17.1591 125.33 17.1591C125.924 17.1591 126.445 17.2841 126.892 17.5341C127.339 17.7803 127.686 18.1477 127.932 18.6364C128.178 19.125 128.301 19.7292 128.301 20.4489V26H126.602V20.6534C126.602 20.0208 126.438 19.5265 126.108 19.1705C125.778 18.8106 125.326 18.6307 124.75 18.6307C124.356 18.6307 124.006 18.7159 123.699 18.8864C123.396 19.0568 123.155 19.3068 122.977 19.6364C122.803 19.9621 122.716 20.3561 122.716 20.8182ZM133.847 26.1705C133.142 26.1705 132.513 25.9905 131.96 25.6307C131.411 25.267 130.979 24.75 130.665 24.0795C130.354 23.4053 130.199 22.5966 130.199 21.6534C130.199 20.7102 130.356 19.9034 130.67 19.233C130.989 18.5625 131.424 18.0492 131.977 17.6932C132.53 17.3371 133.157 17.1591 133.858 17.1591C134.4 17.1591 134.835 17.25 135.165 17.4318C135.498 17.6098 135.756 17.8182 135.938 18.0568C136.123 18.2955 136.267 18.5057 136.369 18.6875H136.472V14.3636H138.17V26H136.511V24.642H136.369C136.267 24.8277 136.119 25.0398 135.926 25.2784C135.737 25.517 135.475 25.7254 135.142 25.9034C134.809 26.0814 134.377 26.1705 133.847 26.1705ZM134.222 24.7216C134.71 24.7216 135.123 24.5928 135.46 24.3352C135.801 24.0739 136.059 23.7121 136.233 23.25C136.411 22.7879 136.5 22.25 136.5 21.6364C136.5 21.0303 136.413 20.5 136.239 20.0455C136.064 19.5909 135.809 19.2367 135.472 18.983C135.134 18.7292 134.718 18.6023 134.222 18.6023C133.71 18.6023 133.284 18.7348 132.943 19C132.602 19.2652 132.345 19.6269 132.17 20.0852C132 20.5436 131.915 21.0606 131.915 21.6364C131.915 22.2197 132.002 22.7443 132.176 23.2102C132.35 23.6761 132.608 24.0455 132.949 24.3182C133.294 24.5871 133.718 24.7216 134.222 24.7216ZM144.392 15.875V14.3636H153.398V15.875H149.767V26H148.017V15.875H144.392ZM157.747 26.1761C156.887 26.1761 156.147 25.9924 155.526 25.625C154.908 25.2538 154.431 24.733 154.094 24.0625C153.76 23.3883 153.594 22.5985 153.594 21.6932C153.594 20.7992 153.76 20.0114 154.094 19.3295C154.431 18.6477 154.901 18.1155 155.503 17.733C156.109 17.3504 156.817 17.1591 157.628 17.1591C158.12 17.1591 158.598 17.2405 159.06 17.4034C159.522 17.5663 159.937 17.822 160.304 18.1705C160.671 18.5189 160.961 18.9716 161.173 19.5284C161.385 20.0814 161.491 20.7538 161.491 21.5455V22.1477H154.554V20.875H159.827C159.827 20.428 159.736 20.0322 159.554 19.6875C159.372 19.339 159.116 19.0644 158.787 18.8636C158.461 18.6629 158.079 18.5625 157.639 18.5625C157.162 18.5625 156.745 18.6799 156.389 18.9148C156.037 19.1458 155.764 19.4489 155.571 19.8239C155.382 20.1951 155.287 20.5985 155.287 21.0341V22.0284C155.287 22.6117 155.389 23.108 155.594 23.517C155.802 23.9261 156.092 24.2386 156.463 24.4545C156.834 24.6667 157.268 24.7727 157.764 24.7727C158.086 24.7727 158.38 24.7273 158.645 24.6364C158.91 24.5417 159.139 24.4015 159.332 24.2159C159.526 24.0303 159.673 23.8011 159.776 23.5284L161.384 23.8182C161.255 24.2917 161.024 24.7064 160.69 25.0625C160.361 25.4148 159.946 25.6894 159.446 25.8864C158.95 26.0795 158.384 26.1761 157.747 26.1761ZM167.053 26.1761C166.208 26.1761 165.481 25.9848 164.871 25.6023C164.265 25.2159 163.799 24.6837 163.473 24.0057C163.147 23.3277 162.984 22.5511 162.984 21.6761C162.984 20.7898 163.151 20.0076 163.484 19.3295C163.818 18.6477 164.287 18.1155 164.893 17.733C165.5 17.3504 166.214 17.1591 167.036 17.1591C167.698 17.1591 168.289 17.2822 168.808 17.5284C169.327 17.7708 169.746 18.1117 170.064 18.5511C170.386 18.9905 170.577 19.5038 170.638 20.0909H168.984C168.893 19.6818 168.685 19.3295 168.359 19.0341C168.037 18.7386 167.606 18.5909 167.064 18.5909C166.59 18.5909 166.176 18.7159 165.82 18.9659C165.467 19.2121 165.193 19.5644 164.996 20.0227C164.799 20.4773 164.7 21.0152 164.7 21.6364C164.7 22.2727 164.797 22.822 164.99 23.2841C165.183 23.7462 165.456 24.1042 165.808 24.358C166.164 24.6117 166.583 24.7386 167.064 24.7386C167.386 24.7386 167.678 24.6799 167.939 24.5625C168.204 24.4413 168.426 24.2689 168.604 24.0455C168.786 23.822 168.912 23.553 168.984 23.2386H170.638C170.577 23.803 170.393 24.3068 170.087 24.75C169.78 25.1932 169.369 25.5417 168.854 25.7955C168.342 26.0492 167.742 26.1761 167.053 26.1761ZM174.153 20.8182V26H172.455V14.3636H174.131V18.6932H174.239C174.443 18.2235 174.756 17.8504 175.176 17.5739C175.597 17.2973 176.146 17.1591 176.824 17.1591C177.422 17.1591 177.945 17.2822 178.392 17.5284C178.843 17.7746 179.191 18.142 179.438 18.6307C179.688 19.1155 179.812 19.7216 179.812 20.4489V26H178.114V20.6534C178.114 20.0133 177.949 19.517 177.619 19.1648C177.29 18.8087 176.831 18.6307 176.244 18.6307C175.843 18.6307 175.483 18.7159 175.165 18.8864C174.85 19.0568 174.602 19.3068 174.42 19.6364C174.242 19.9621 174.153 20.3561 174.153 20.8182ZM183.778 20.8182V26H182.08V17.2727H183.71V18.6932H183.818C184.019 18.2311 184.333 17.8598 184.761 17.5795C185.193 17.2992 185.737 17.1591 186.392 17.1591C186.987 17.1591 187.508 17.2841 187.955 17.5341C188.402 17.7803 188.748 18.1477 188.994 18.6364C189.241 19.125 189.364 19.7292 189.364 20.4489V26H187.665V20.6534C187.665 20.0208 187.5 19.5265 187.17 19.1705C186.841 18.8106 186.388 18.6307 185.812 18.6307C185.419 18.6307 185.068 18.7159 184.761 18.8864C184.458 19.0568 184.218 19.3068 184.04 19.6364C183.866 19.9621 183.778 20.3561 183.778 20.8182ZM195.318 26.1761C194.5 26.1761 193.786 25.9886 193.176 25.6136C192.566 25.2386 192.093 24.714 191.756 24.0398C191.419 23.3655 191.25 22.5777 191.25 21.6761C191.25 20.7708 191.419 19.9792 191.756 19.3011C192.093 18.6231 192.566 18.0966 193.176 17.7216C193.786 17.3466 194.5 17.1591 195.318 17.1591C196.136 17.1591 196.85 17.3466 197.46 17.7216C198.07 18.0966 198.544 18.6231 198.881 19.3011C199.218 19.9792 199.386 20.7708 199.386 21.6761C199.386 22.5777 199.218 23.3655 198.881 24.0398C198.544 24.714 198.07 25.2386 197.46 25.6136C196.85 25.9886 196.136 26.1761 195.318 26.1761ZM195.324 24.75C195.854 24.75 196.294 24.6098 196.642 24.3295C196.991 24.0492 197.248 23.6761 197.415 23.2102C197.585 22.7443 197.67 22.2311 197.67 21.6705C197.67 21.1136 197.585 20.6023 197.415 20.1364C197.248 19.6667 196.991 19.2898 196.642 19.0057C196.294 18.7216 195.854 18.5795 195.324 18.5795C194.79 18.5795 194.347 18.7216 193.994 19.0057C193.646 19.2898 193.386 19.6667 193.216 20.1364C193.049 20.6023 192.966 21.1136 192.966 21.6705C192.966 22.2311 193.049 22.7443 193.216 23.2102C193.386 23.6761 193.646 24.0492 193.994 24.3295C194.347 24.6098 194.79 24.75 195.324 24.75ZM202.982 14.3636V26H201.283V14.3636H202.982ZM208.943 26.1761C208.125 26.1761 207.411 25.9886 206.801 25.6136C206.191 25.2386 205.718 24.714 205.381 24.0398C205.044 23.3655 204.875 22.5777 204.875 21.6761C204.875 20.7708 205.044 19.9792 205.381 19.3011C205.718 18.6231 206.191 18.0966 206.801 17.7216C207.411 17.3466 208.125 17.1591 208.943 17.1591C209.761 17.1591 210.475 17.3466 211.085 17.7216C211.695 18.0966 212.169 18.6231 212.506 19.3011C212.843 19.9792 213.011 20.7708 213.011 21.6761C213.011 22.5777 212.843 23.3655 212.506 24.0398C212.169 24.714 211.695 25.2386 211.085 25.6136C210.475 25.9886 209.761 26.1761 208.943 26.1761ZM208.949 24.75C209.479 24.75 209.919 24.6098 210.267 24.3295C210.616 24.0492 210.873 23.6761 211.04 23.2102C211.21 22.7443 211.295 22.2311 211.295 21.6705C211.295 21.1136 211.21 20.6023 211.04 20.1364C210.873 19.6667 210.616 19.2898 210.267 19.0057C209.919 18.7216 209.479 18.5795 208.949 18.5795C208.415 18.5795 207.972 18.7216 207.619 19.0057C207.271 19.2898 207.011 19.6667 206.841 20.1364C206.674 20.6023 206.591 21.1136 206.591 21.6705C206.591 22.2311 206.674 22.7443 206.841 23.2102C207.011 23.6761 207.271 24.0492 207.619 24.3295C207.972 24.6098 208.415 24.75 208.949 24.75ZM218.567 29.4545C217.874 29.4545 217.277 29.3636 216.777 29.1818C216.281 29 215.875 28.7595 215.561 28.4602C215.247 28.161 215.012 27.8333 214.857 27.4773L216.317 26.875C216.419 27.0417 216.555 27.2178 216.726 27.4034C216.9 27.5928 217.135 27.7538 217.43 27.8864C217.73 28.0189 218.114 28.0852 218.584 28.0852C219.228 28.0852 219.76 27.928 220.18 27.6136C220.601 27.303 220.811 26.8068 220.811 26.125V24.4091H220.703C220.601 24.5947 220.453 24.8011 220.26 25.0284C220.071 25.2557 219.809 25.4527 219.476 25.6193C219.143 25.786 218.709 25.8693 218.175 25.8693C217.485 25.8693 216.864 25.7083 216.311 25.3864C215.762 25.0606 215.326 24.5814 215.004 23.9489C214.686 23.3125 214.527 22.5303 214.527 21.6023C214.527 20.6742 214.684 19.8788 214.999 19.2159C215.317 18.553 215.752 18.0455 216.305 17.6932C216.858 17.3371 217.485 17.1591 218.186 17.1591C218.728 17.1591 219.165 17.25 219.499 17.4318C219.832 17.6098 220.091 17.8182 220.277 18.0568C220.466 18.2955 220.612 18.5057 220.714 18.6875H220.839V17.2727H222.504V26.1932C222.504 26.9432 222.33 27.5587 221.982 28.0398C221.633 28.5208 221.161 28.8769 220.567 29.108C219.976 29.339 219.309 29.4545 218.567 29.4545ZM218.55 24.4602C219.038 24.4602 219.451 24.3466 219.788 24.1193C220.129 23.8883 220.387 23.5587 220.561 23.1307C220.739 22.6989 220.828 22.1818 220.828 21.5795C220.828 20.9924 220.741 20.4754 220.567 20.0284C220.393 19.5814 220.137 19.233 219.8 18.983C219.463 18.7292 219.046 18.6023 218.55 18.6023C218.038 18.6023 217.612 18.7348 217.271 19C216.93 19.2614 216.673 19.6174 216.499 20.0682C216.328 20.5189 216.243 21.0227 216.243 21.5795C216.243 22.1515 216.33 22.6534 216.504 23.0852C216.679 23.517 216.936 23.8542 217.277 24.0966C217.622 24.339 218.046 24.4602 218.55 24.4602ZM225.857 29.2727C225.603 29.2727 225.372 29.2519 225.163 29.2102C224.955 29.1723 224.8 29.1307 224.697 29.0852L225.107 27.6932C225.417 27.7765 225.694 27.8125 225.936 27.8011C226.179 27.7898 226.393 27.6989 226.578 27.5284C226.768 27.358 226.934 27.0795 227.078 26.6932L227.288 26.1136L224.095 17.2727H225.913L228.124 24.0455H228.214L230.425 17.2727H232.249L228.652 27.1648C228.485 27.6193 228.273 28.0038 228.016 28.3182C227.758 28.6364 227.451 28.875 227.095 29.0341C226.739 29.1932 226.326 29.2727 225.857 29.2727Z" fill="white"/>
<circle cx="22" cy="20" r="6" fill="black"/>
</svg>
