<svg width="298" height="70" viewBox="0 0 298 70" fill="none" xmlns="http://www.w3.org/2000/svg">
<path d="M0 0H268.545L297.818 26.4151V70H31.8182L0 44.5455L0 0Z" fill="#FF6600"/>
<path d="M69.3136 38.3636C68.9176 38.3636 68.5516 38.2676 68.2156 38.0756C67.8916 37.8836 67.6336 37.6256 67.4416 37.3016C67.2496 36.9656 67.1536 36.5996 67.1536 36.2036V27.5636C67.1536 27.1676 67.2496 26.8076 67.4416 26.4836C67.6336 26.1476 67.8916 25.8836 68.2156 25.6916C68.5516 25.4996 68.9176 25.4036 69.3136 25.4036H77.9536C78.3496 25.4036 78.7096 25.4996 79.0336 25.6916C79.3696 25.8836 79.6336 26.1476 79.8256 26.4836C80.0176 26.8076 80.1136 27.1676 80.1136 27.5636V36.2036C80.1136 36.5996 80.0176 36.9656 79.8256 37.3016C79.6336 37.6256 79.3696 37.8836 79.0336 38.0756C78.7096 38.2676 78.3496 38.3636 77.9536 38.3636H69.3136ZM69.3136 36.9056H77.9536C78.1456 36.9056 78.3076 36.8396 78.4396 36.7076C78.5836 36.5636 78.6556 36.3956 78.6556 36.2036V27.5636C78.6556 27.3716 78.5836 27.2096 78.4396 27.0776C78.3076 26.9336 78.1456 26.8616 77.9536 26.8616H69.3136C69.1216 26.8616 68.9536 26.9336 68.8096 27.0776C68.6776 27.2096 68.6116 27.3716 68.6116 27.5636V36.2036C68.6116 36.3956 68.6776 36.5636 68.8096 36.7076C68.9536 36.8396 69.1216 36.9056 69.3136 36.9056ZM84.2199 38.3636C83.8239 38.3636 83.4579 38.2676 83.1219 38.0756C82.7979 37.8716 82.5339 37.6076 82.3299 37.2836C82.1379 36.9476 82.0419 36.5816 82.0419 36.1856V27.9236H83.5179V36.1856C83.5179 36.3776 83.5839 36.5456 83.7159 36.6896C83.8599 36.8216 84.0279 36.8876 84.2199 36.8876H90.4839C90.6759 36.8876 90.8439 36.8216 90.9879 36.6896C91.1319 36.5456 91.2039 36.3776 91.2039 36.1856V27.9236H92.6799V36.1856C92.6799 36.5816 92.5779 36.9476 92.3739 37.2836C92.1819 37.6076 91.9179 37.8716 91.5819 38.0756C91.2579 38.2676 90.8919 38.3636 90.4839 38.3636H84.2199ZM94.5395 38.3636V30.1016C94.5395 29.7056 94.6355 29.3456 94.8275 29.0216C95.0315 28.6856 95.2955 28.4216 95.6195 28.2296C95.9555 28.0256 96.3215 27.9236 96.7175 27.9236H102.586V29.3996H96.7175C96.5255 29.3996 96.3575 29.4716 96.2135 29.6156C96.0815 29.7476 96.0155 29.9096 96.0155 30.1016V38.3636H94.5395ZM110.761 38.3636C110.365 38.3636 109.999 38.2676 109.663 38.0756C109.339 37.8716 109.075 37.6076 108.871 37.2836C108.679 36.9476 108.583 36.5816 108.583 36.1856V36.0416H110.059V36.1856C110.059 36.3776 110.125 36.5456 110.257 36.6896C110.401 36.8216 110.569 36.8876 110.761 36.8876H117.025C117.217 36.8876 117.379 36.8216 117.511 36.6896C117.655 36.5456 117.727 36.3776 117.727 36.1856V34.5836C117.727 34.3916 117.655 34.2296 117.511 34.0976C117.379 33.9536 117.217 33.8816 117.025 33.8816H110.761C110.365 33.8816 109.999 33.7856 109.663 33.5936C109.339 33.3896 109.075 33.1256 108.871 32.8016C108.679 32.4656 108.583 32.0996 108.583 31.7036V30.1016C108.583 29.7056 108.679 29.3456 108.871 29.0216C109.075 28.6856 109.339 28.4216 109.663 28.2296C109.999 28.0256 110.365 27.9236 110.761 27.9236H117.025C117.433 27.9236 117.799 28.0256 118.123 28.2296C118.459 28.4216 118.723 28.6856 118.915 29.0216C119.119 29.3456 119.221 29.7056 119.221 30.1016V30.2456H117.727V30.1016C117.727 29.9096 117.655 29.7476 117.511 29.6156C117.379 29.4716 117.217 29.3996 117.025 29.3996H110.761C110.569 29.3996 110.401 29.4716 110.257 29.6156C110.125 29.7476 110.059 29.9096 110.059 30.1016V31.7036C110.059 31.8956 110.125 32.0636 110.257 32.2076C110.401 32.3396 110.569 32.4056 110.761 32.4056H117.025C117.433 32.4056 117.799 32.5076 118.123 32.7116C118.459 32.9036 118.723 33.1676 118.915 33.5036C119.119 33.8276 119.221 34.1876 119.221 34.5836V36.1856C119.221 36.5816 119.119 36.9476 118.915 37.2836C118.723 37.6076 118.459 37.8716 118.123 38.0756C117.799 38.2676 117.433 38.3636 117.025 38.3636H110.761ZM122.891 38.3636C122.495 38.3636 122.129 38.2676 121.793 38.0756C121.469 37.8716 121.205 37.6076 121.001 37.2836C120.809 36.9476 120.713 36.5816 120.713 36.1856V30.1016C120.713 29.7056 120.809 29.3456 121.001 29.0216C121.205 28.6856 121.469 28.4216 121.793 28.2296C122.129 28.0256 122.495 27.9236 122.891 27.9236H129.155C129.563 27.9236 129.929 28.0256 130.253 28.2296C130.589 28.4216 130.853 28.6856 131.045 29.0216C131.249 29.3456 131.351 29.7056 131.351 30.1016V33.8816H122.189V36.1856C122.189 36.3776 122.255 36.5456 122.387 36.6896C122.531 36.8216 122.699 36.8876 122.891 36.8876H131.351V38.3636H122.891ZM122.189 32.4056H129.857V30.1016C129.857 29.9096 129.785 29.7476 129.641 29.6156C129.509 29.4716 129.347 29.3996 129.155 29.3996H122.891C122.699 29.3996 122.531 29.4716 122.387 29.6156C122.255 29.7476 122.189 29.9096 122.189 30.1016V32.4056ZM133.106 38.3636V30.1016C133.106 29.7056 133.202 29.3456 133.394 29.0216C133.598 28.6856 133.862 28.4216 134.186 28.2296C134.522 28.0256 134.888 27.9236 135.284 27.9236H141.152V29.3996H135.284C135.092 29.3996 134.924 29.4716 134.78 29.6156C134.648 29.7476 134.582 29.9096 134.582 30.1016V38.3636H133.106ZM147.519 38.3636L141.759 27.9236H143.487L148.383 36.9236L153.279 27.9236H155.007L149.229 38.3636H147.519ZM156.538 38.3636V27.9236H158.014V38.3636H156.538ZM156.538 25.9796V24.5036H158.014V25.9796H156.538ZM162.178 38.3636C161.782 38.3636 161.416 38.2676 161.08 38.0756C160.756 37.8716 160.492 37.6076 160.288 37.2836C160.096 36.9476 160 36.5816 160 36.1856V30.1016C160 29.7056 160.096 29.3456 160.288 29.0216C160.492 28.6856 160.756 28.4216 161.08 28.2296C161.416 28.0256 161.782 27.9236 162.178 27.9236H170.602V29.3996H162.178C161.986 29.3996 161.818 29.4716 161.674 29.6156C161.542 29.7476 161.476 29.9096 161.476 30.1016V36.1856C161.476 36.3776 161.542 36.5456 161.674 36.6896C161.818 36.8216 161.986 36.8876 162.178 36.8876H170.638V38.3636H162.178ZM174.237 38.3636C173.841 38.3636 173.475 38.2676 173.139 38.0756C172.815 37.8716 172.551 37.6076 172.347 37.2836C172.155 36.9476 172.059 36.5816 172.059 36.1856V30.1016C172.059 29.7056 172.155 29.3456 172.347 29.0216C172.551 28.6856 172.815 28.4216 173.139 28.2296C173.475 28.0256 173.841 27.9236 174.237 27.9236H180.501C180.909 27.9236 181.275 28.0256 181.599 28.2296C181.935 28.4216 182.199 28.6856 182.391 29.0216C182.595 29.3456 182.697 29.7056 182.697 30.1016V33.8816H173.535V36.1856C173.535 36.3776 173.601 36.5456 173.733 36.6896C173.877 36.8216 174.045 36.8876 174.237 36.8876H182.697V38.3636H174.237ZM173.535 32.4056H181.203V30.1016C181.203 29.9096 181.131 29.7476 180.987 29.6156C180.855 29.4716 180.693 29.3996 180.501 29.3996H174.237C174.045 29.3996 173.877 29.4716 173.733 29.6156C173.601 29.7476 173.535 29.9096 173.535 30.1016V32.4056ZM186.646 38.3636C186.25 38.3636 185.884 38.2676 185.548 38.0756C185.224 37.8716 184.96 37.6076 184.756 37.2836C184.564 36.9476 184.468 36.5816 184.468 36.1856V36.0416H185.944V36.1856C185.944 36.3776 186.01 36.5456 186.142 36.6896C186.286 36.8216 186.454 36.8876 186.646 36.8876H192.91C193.102 36.8876 193.264 36.8216 193.396 36.6896C193.54 36.5456 193.612 36.3776 193.612 36.1856V34.5836C193.612 34.3916 193.54 34.2296 193.396 34.0976C193.264 33.9536 193.102 33.8816 192.91 33.8816H186.646C186.25 33.8816 185.884 33.7856 185.548 33.5936C185.224 33.3896 184.96 33.1256 184.756 32.8016C184.564 32.4656 184.468 32.0996 184.468 31.7036V30.1016C184.468 29.7056 184.564 29.3456 184.756 29.0216C184.96 28.6856 185.224 28.4216 185.548 28.2296C185.884 28.0256 186.25 27.9236 186.646 27.9236H192.91C193.318 27.9236 193.684 28.0256 194.008 28.2296C194.344 28.4216 194.608 28.6856 194.8 29.0216C195.004 29.3456 195.106 29.7056 195.106 30.1016V30.2456H193.612V30.1016C193.612 29.9096 193.54 29.7476 193.396 29.6156C193.264 29.4716 193.102 29.3996 192.91 29.3996H186.646C186.454 29.3996 186.286 29.4716 186.142 29.6156C186.01 29.7476 185.944 29.9096 185.944 30.1016V31.7036C185.944 31.8956 186.01 32.0636 186.142 32.2076C186.286 32.3396 186.454 32.4056 186.646 32.4056H192.91C193.318 32.4056 193.684 32.5076 194.008 32.7116C194.344 32.9036 194.608 33.1676 194.8 33.5036C195.004 33.8276 195.106 34.1876 195.106 34.5836V36.1856C195.106 36.5816 195.004 36.9476 194.8 37.2836C194.608 37.6076 194.344 37.8716 194.008 38.0756C193.684 38.2676 193.318 38.3636 192.91 38.3636H186.646Z" fill="#050D10"/>
</svg>
