<svg width="298" height="70" viewBox="0 0 298 70" fill="none" xmlns="http://www.w3.org/2000/svg">
<path d="M0 0H268.545L297.818 26.4151V70H31.8182L0 44.5455L0 0Z" fill="#FF6600"/>
<path d="M39.2243 47C38.5203 47 37.8696 46.8293 37.2723 46.488C36.6963 46.1467 36.2376 45.688 35.8963 45.112C35.5549 44.5147 35.3843 43.864 35.3843 43.16V27.8C35.3843 27.096 35.5549 26.456 35.8963 25.88C36.2376 25.2827 36.6963 24.8133 37.2723 24.472C37.8696 24.1307 38.5203 23.96 39.2243 23.96H54.5843C55.2883 23.96 55.9283 24.1307 56.5043 24.472C57.1016 24.8133 57.5709 25.2827 57.9123 25.88C58.2536 26.456 58.4243 27.096 58.4243 27.8V43.16C58.4243 43.864 58.2536 44.5147 57.9123 45.112C57.5709 45.688 57.1016 46.1467 56.5043 46.488C55.9283 46.8293 55.2883 47 54.5843 47H39.2243ZM39.2243 44.408H54.5843C54.9256 44.408 55.2136 44.2907 55.4483 44.056C55.7043 43.8 55.8323 43.5013 55.8323 43.16V27.8C55.8323 27.4587 55.7043 27.1707 55.4483 26.936C55.2136 26.68 54.9256 26.552 54.5843 26.552H39.2243C38.8829 26.552 38.5843 26.68 38.3283 26.936C38.0936 27.1707 37.9763 27.4587 37.9763 27.8V43.16C37.9763 43.5013 38.0936 43.8 38.3283 44.056C38.5843 44.2907 38.8829 44.408 39.2243 44.408ZM65.7243 47C65.0203 47 64.3696 46.8293 63.7723 46.488C63.1963 46.1253 62.7269 45.656 62.3643 45.08C62.0229 44.4827 61.8523 43.832 61.8523 43.128V28.44H64.4763V43.128C64.4763 43.4693 64.5936 43.768 64.8283 44.024C65.0843 44.2587 65.3829 44.376 65.7243 44.376H76.8603C77.2016 44.376 77.5003 44.2587 77.7563 44.024C78.0123 43.768 78.1403 43.4693 78.1403 43.128V28.44H80.7643V43.128C80.7643 43.832 80.5829 44.4827 80.2203 45.08C79.8789 45.656 79.4096 46.1253 78.8123 46.488C78.2363 46.8293 77.5856 47 76.8603 47H65.7243ZM84.0703 47V32.312C84.0703 31.608 84.2409 30.968 84.5823 30.392C84.9449 29.7947 85.4143 29.3253 85.9903 28.984C86.5876 28.6213 87.2383 28.44 87.9423 28.44H98.3743V31.064H87.9423C87.6009 31.064 87.3023 31.192 87.0463 31.448C86.8116 31.6827 86.6943 31.9707 86.6943 32.312V47H84.0703ZM112.908 47C112.204 47 111.553 46.8293 110.956 46.488C110.38 46.1253 109.911 45.656 109.548 45.08C109.207 44.4827 109.036 43.832 109.036 43.128V42.872H111.66V43.128C111.66 43.4693 111.777 43.768 112.012 44.024C112.268 44.2587 112.567 44.376 112.908 44.376H124.044C124.385 44.376 124.673 44.2587 124.908 44.024C125.164 43.768 125.292 43.4693 125.292 43.128V40.28C125.292 39.9387 125.164 39.6507 124.908 39.416C124.673 39.16 124.385 39.032 124.044 39.032H112.908C112.204 39.032 111.553 38.8613 110.956 38.52C110.38 38.1573 109.911 37.688 109.548 37.112C109.207 36.5147 109.036 35.864 109.036 35.16V32.312C109.036 31.608 109.207 30.968 109.548 30.392C109.911 29.7947 110.38 29.3253 110.956 28.984C111.553 28.6213 112.204 28.44 112.908 28.44H124.044C124.769 28.44 125.42 28.6213 125.996 28.984C126.593 29.3253 127.063 29.7947 127.404 30.392C127.767 30.968 127.948 31.608 127.948 32.312V32.568H125.292V32.312C125.292 31.9707 125.164 31.6827 124.908 31.448C124.673 31.192 124.385 31.064 124.044 31.064H112.908C112.567 31.064 112.268 31.192 112.012 31.448C111.777 31.6827 111.66 31.9707 111.66 32.312V35.16C111.66 35.5013 111.777 35.8 112.012 36.056C112.268 36.2907 112.567 36.408 112.908 36.408H124.044C124.769 36.408 125.42 36.5893 125.996 36.952C126.593 37.2933 127.063 37.7627 127.404 38.36C127.767 38.936 127.948 39.576 127.948 40.28V43.128C127.948 43.832 127.767 44.4827 127.404 45.08C127.063 45.656 126.593 46.1253 125.996 46.488C125.42 46.8293 124.769 47 124.044 47H112.908ZM134.473 47C133.769 47 133.118 46.8293 132.521 46.488C131.945 46.1253 131.475 45.656 131.113 45.08C130.771 44.4827 130.601 43.832 130.601 43.128V32.312C130.601 31.608 130.771 30.968 131.113 30.392C131.475 29.7947 131.945 29.3253 132.521 28.984C133.118 28.6213 133.769 28.44 134.473 28.44H145.609C146.334 28.44 146.985 28.6213 147.561 28.984C148.158 29.3253 148.627 29.7947 148.969 30.392C149.331 30.968 149.513 31.608 149.513 32.312V39.032H133.225V43.128C133.225 43.4693 133.342 43.768 133.577 44.024C133.833 44.2587 134.131 44.376 134.473 44.376H149.513V47H134.473ZM133.225 36.408H146.857V32.312C146.857 31.9707 146.729 31.6827 146.473 31.448C146.238 31.192 145.95 31.064 145.609 31.064H134.473C134.131 31.064 133.833 31.192 133.577 31.448C133.342 31.6827 133.225 31.9707 133.225 32.312V36.408ZM152.633 47V32.312C152.633 31.608 152.803 30.968 153.145 30.392C153.507 29.7947 153.977 29.3253 154.553 28.984C155.15 28.6213 155.801 28.44 156.505 28.44H166.937V31.064H156.505C156.163 31.064 155.865 31.192 155.609 31.448C155.374 31.6827 155.257 31.9707 155.257 32.312V47H152.633ZM178.256 47L168.016 28.44H171.088L179.792 44.44L188.496 28.44H191.568L181.296 47H178.256ZM194.289 47V28.44H196.913V47H194.289ZM194.289 24.984V22.36H196.913V24.984H194.289ZM204.317 47C203.613 47 202.962 46.8293 202.365 46.488C201.789 46.1253 201.319 45.656 200.957 45.08C200.615 44.4827 200.445 43.832 200.445 43.128V32.312C200.445 31.608 200.615 30.968 200.957 30.392C201.319 29.7947 201.789 29.3253 202.365 28.984C202.962 28.6213 203.613 28.44 204.317 28.44H219.293V31.064H204.317C203.975 31.064 203.677 31.192 203.421 31.448C203.186 31.6827 203.069 31.9707 203.069 32.312V43.128C203.069 43.4693 203.186 43.768 203.421 44.024C203.677 44.2587 203.975 44.376 204.317 44.376H219.357V47H204.317ZM225.754 47C225.05 47 224.399 46.8293 223.802 46.488C223.226 46.1253 222.757 45.656 222.394 45.08C222.053 44.4827 221.882 43.832 221.882 43.128V32.312C221.882 31.608 222.053 30.968 222.394 30.392C222.757 29.7947 223.226 29.3253 223.802 28.984C224.399 28.6213 225.05 28.44 225.754 28.44H236.89C237.615 28.44 238.266 28.6213 238.842 28.984C239.439 29.3253 239.909 29.7947 240.25 30.392C240.613 30.968 240.794 31.608 240.794 32.312V39.032H224.506V43.128C224.506 43.4693 224.623 43.768 224.858 44.024C225.114 44.2587 225.413 44.376 225.754 44.376H240.794V47H225.754ZM224.506 36.408H238.138V32.312C238.138 31.9707 238.01 31.6827 237.754 31.448C237.519 31.192 237.231 31.064 236.89 31.064H225.754C225.413 31.064 225.114 31.192 224.858 31.448C224.623 31.6827 224.506 31.9707 224.506 32.312V36.408ZM247.814 47C247.11 47 246.46 46.8293 245.862 46.488C245.286 46.1253 244.817 45.656 244.454 45.08C244.113 44.4827 243.942 43.832 243.942 43.128V42.872H246.566V43.128C246.566 43.4693 246.684 43.768 246.918 44.024C247.174 44.2587 247.473 44.376 247.814 44.376H258.95C259.292 44.376 259.58 44.2587 259.814 44.024C260.07 43.768 260.198 43.4693 260.198 43.128V40.28C260.198 39.9387 260.07 39.6507 259.814 39.416C259.58 39.16 259.292 39.032 258.95 39.032H247.814C247.11 39.032 246.46 38.8613 245.862 38.52C245.286 38.1573 244.817 37.688 244.454 37.112C244.113 36.5147 243.942 35.864 243.942 35.16V32.312C243.942 31.608 244.113 30.968 244.454 30.392C244.817 29.7947 245.286 29.3253 245.862 28.984C246.46 28.6213 247.11 28.44 247.814 28.44H258.95C259.676 28.44 260.326 28.6213 260.902 28.984C261.5 29.3253 261.969 29.7947 262.31 30.392C262.673 30.968 262.854 31.608 262.854 32.312V32.568H260.198V32.312C260.198 31.9707 260.07 31.6827 259.814 31.448C259.58 31.192 259.292 31.064 258.95 31.064H247.814C247.473 31.064 247.174 31.192 246.918 31.448C246.684 31.6827 246.566 31.9707 246.566 32.312V35.16C246.566 35.5013 246.684 35.8 246.918 36.056C247.174 36.2907 247.473 36.408 247.814 36.408H258.95C259.676 36.408 260.326 36.5893 260.902 36.952C261.5 37.2933 261.969 37.7627 262.31 38.36C262.673 38.936 262.854 39.576 262.854 40.28V43.128C262.854 43.832 262.673 44.4827 262.31 45.08C261.969 45.656 261.5 46.1253 260.902 46.488C260.326 46.8293 259.676 47 258.95 47H247.814Z" fill="#050D10"/>
</svg>
